<svg xmlns="http://www.w3.org/2000/svg" width="264" height="112" fill="none"><rect width="263" height="111" x=".5" y=".5" fill="#F4F4FD" stroke="#8E8F99" rx="3.5"/><path fill="#2E2F42" d="m161.55 68.2-16.89-17.01 1.87-9.24c.49.2 1 .3 1.52.3h.01a4.32 4.32 0 1 0-4.01-2.88l-9.92 1.22-16.19-16.27c-.2-.2-.46-.32-.75-.32-.28 0-.55.11-.75.31l-3.02 3c-.42.42-.42 1.1 0 1.52l1.63 1.65a29.88 29.88 0 0 0 5.04 35.32c.08.09.18.15.29.2-.07.36-.1.73-.1 1.1v12.37h-12.8a5.34 5.34 0 0 0-5.34 5.33v2.13c0 .6.48 1.07 1.07 1.07h49.07c.58 0 1.06-.48 1.06-1.07V84.8a5.34 5.34 0 0 0-5.33-5.33h-12.8v-5.49a29.7 29.7 0 0 0 20.18-2.93l1.63 1.65c.2.2.47.32.75.32s.55-.11.75-.3l3.03-3.02c.41-.41.41-1.09 0-1.5Zm-14.99-31.73a2.13 2.13 0 1 1 1.5 3.64 2.13 2.13 0 0 1-1.5-3.64Zm-2.51 7-1.2 5.9L140.5 47l3.55-3.52Zm-1.21-1.8L139 45.5l-2.97-2.99 6.8-.83ZM148 81.6a3.2 3.2 0 0 1 3.2 3.2v1.07h-46.94V84.8a3.2 3.2 0 0 1 3.2-3.2h40.54Zm-14.94-4.27v2.14h-10.66v-2.14h10.66Zm-10.66-2.13v-8.1c0-2.6 2.4-4.7 5.33-4.7 2.94 0 5.33 2.1 5.33 4.7v8.1h-10.66Zm12.8-3.4v-4.7c0-3.77-3.35-6.83-7.47-6.83a7.6 7.6 0 0 0-6.56 3.57 27.74 27.74 0 0 1-4.56-31.78l37.2 37.42a27.64 27.64 0 0 1-18.61 2.33Zm22.58-1.36-1.5-1.51-39.1-39.34-1.52-1.51 1.51-1.5 15.87 15.95.02.02 26.23 26.39-1.51 1.5Z"/></svg>