<svg xmlns="http://www.w3.org/2000/svg" width="264" height="112" fill="none"><rect width="263" height="111" x=".5" y=".5" fill="#F4F4FD" stroke="#8E8F99" rx="3.5"/><g clip-path="url(#a)"><path fill="#2E2F42" d="M162.6 54.6A30.6 30.6 0 1 0 123 83.8c.3 0 .5 0 .7-.2.3-.1.5-.4.6-.7l7.7-24.5a3.8 3.8 0 1 0-1.7-7.2l-10.2-10.3a1.3 1.3 0 0 0-1.8 1.8L128.5 53a3.8 3.8 0 0 0 1.1 4.6l-7.4 23.3a28 28 0 1 1 21.2-.7l-.8-3.7a1.3 1.3 0 0 0-2.1-.7l-7.7 6.8a1.3 1.3 0 0 0 .5 2.2L143 88a1.3 1.3 0 0 0 1.6-1.4l-.8-3.7a30.5 30.5 0 0 0 18.7-28.2ZM132 53.3a1.3 1.3 0 1 1 0 2.6 1.3 1.3 0 0 1 0-2.6Zm4.2 29.8 4.4-4 1.2 5.7-5.6-1.7Z"/><path fill="#4D5AE5" d="M130.7 30.4v2.5a1.3 1.3 0 1 0 2.6 0v-2.5a1.3 1.3 0 0 0-2.6 0ZM107.8 53.3a1.3 1.3 0 1 0 0 2.6h2.5a1.3 1.3 0 0 0 0-2.6h-2.5ZM156.2 55.9a1.3 1.3 0 1 0 0-2.6h-2.5a1.3 1.3 0 0 0 0 2.6h2.5Z"/></g><defs><clipPath id="a"><path fill="#fff" d="M100 24h64v64h-64z"/></clipPath></defs></svg>