<svg xmlns="http://www.w3.org/2000/svg" width="264" height="112" fill="none"><rect width="263" height="111" x=".5" y=".5" fill="#F4F4FD" stroke="#8E8F99" rx="3.5"/><g clip-path="url(#a)"><path fill="#4D5AE5" d="M130 54h2v10h-2V54ZM138 58h3v6h-3v-6ZM121 61h2v3h-2v-3ZM115 60h2v4h-2v-4Z"/><path fill="#2E2F42" d="M103 81h51c2 0 4-2 4-4v-4c0-2-2-3-4-3h-1V43l6-5a3 3 0 1 0-1-2l-5 4v-2c0-2-1-3-3-3h-43c-1 0-3 1-3 3v32h-1c-2 0-3 1-3 3v4c0 2 1 4 3 4Zm58-47a1 1 0 1 1 0 2 1 1 0 0 1 0-2Zm-55 4 1-1h43l1 1v4l-2 2v-4l-1-1h-38l-1 1v27l1 1h38l1-1V47l2-2v25h-45V38Zm10 14a3 3 0 1 0 2 5l4 2h1l8-9 8 6h1l7-7v17h-36V41h36v5l-8 8-7-6h-2l-8 9-3-2c0-2-1-3-3-3Zm1 3a1 1 0 1 1-2 0 1 1 0 0 1 2 0Zm6 17h11v1l-1 1h-8l-2-1v-1Zm-21 1 1-1h18v1c0 2 2 3 4 3h8c2 0 3-1 3-3v-1h18l1 1v4l-1 1h-51l-1-1v-4Z"/></g><defs><clipPath id="a"><path fill="#fff" d="M100 24h64v64h-64z"/></clipPath></defs></svg>