<svg xmlns="http://www.w3.org/2000/svg" width="264" height="112" fill="none"><rect width="263" height="111" x=".5" y=".5" fill="#F4F4FD" stroke="#8E8F99" rx="3.5"/><path fill="#4D5AE5" d="M164 33a1 1 0 0 0-1-.7l-3.7-.5-1.7-3.5c-.4-.7-1.6-.7-2 0l-1.7 3.5-3.8.5a1 1 0 0 0-.6 1.8l2.8 2.7-.7 3.8a1 1 0 0 0 1.6 1.2l3.4-1.8 3.4 1.8a1 1 0 0 0 1.6-1.2l-.7-3.8 2.8-2.7c.3-.2.4-.7.2-1Zm-5 2.7a1 1 0 0 0-.3 1l.4 2.2-2-1a1 1 0 0 0-1 0l-2 1 .4-2.3c0-.3 0-.7-.3-.9l-1.6-1.6 2.2-.3c.3 0 .6-.3.8-.6l1-2 1 2c.2.3.5.5.8.6l2.2.3-1.6 1.6ZM152.3 65H150v2.2h2.2V65ZM152.3 69.3H150v2.1h2.2v-2ZM154.4 67.2h-2.1v2.1h2.1v-2.1ZM150.1 67.2H148v2.1h2.1v-2.1ZM144.8 76.8h-2.1v2.1h2.1v-2.1ZM144.8 81h-2.1v2.2h2.1V81ZM147 79h-2.2v2h2.1v-2ZM142.7 79h-2.2v2h2.2v-2ZM132 72.5h-2.1v2.1h2.1v-2ZM132 76.8h-2.1v2.1h2.1v-2.1ZM134.1 74.6H132v2.2h2.1v-2.2ZM129.9 74.6h-2.2v2.2h2.2v-2.2ZM111.7 36.2h-2.1v2.2h2.1v-2.2ZM111.7 40.5h-2.1v2.1h2.1v-2ZM113.9 38.4h-2.2v2.1h2.2v-2.1ZM109.6 38.4h-2.1v2.1h2.1v-2.1Z"/><path fill="#2E2F42" d="M149.4 52.3a3.5 3.5 0 0 0-2.3-1.4c-1-.1-2 .1-2.7.7l-2.5 2-3.8 2.8-2.7-1.1a13.9 13.9 0 0 0-5.7-26.5A14 14 0 0 0 118 50.2h-5.6a1 1 0 0 0-.3 0h-.1l-6.5 3.2-3.8 1.8-.1.1a3.6 3.6 0 0 0 3.7 6.1L108 60l4.6-2.3h2.7l-10.9 10.8-2.7 2.7a3.3 3.3 0 0 0 0 4.7 3.3 3.3 0 0 0 4.7 0l2.7-2.6 3.4-2.6 1.8 1.8-3.5 3.5-2.7 2.7a3.3 3.3 0 0 0 0 4.7 3.3 3.3 0 0 0 4.8 0l2.6-2.7 4.3-4.3 2-2L132.3 63l7 1a1 1 0 0 0 .5-.1l.2-.1 6.4-4.3h.2L149 57a3.6 3.6 0 0 0 .4-4.7Zm-45.1 7.2c-.4.2-.8.3-1.2.1a1.4 1.4 0 0 1-.4-2.5l2.6-1.2.7 1.8.2.8-2 1Zm7-3.6-3.1 1.6-.6-1.5-.3-1 4-2v2.9Zm30.2-13.3c0 1.9-.5 3.6-1.2 5.2l-8.4-3.8c0-1.2-.7-2.2-1.6-2.8l3-9.7c4.7 1.5 8.2 6 8.2 11.1Zm-23.6 0A11.8 11.8 0 0 1 131.2 31l-3 9.5c-2 0-3.8 1.7-3.8 3.7a3.7 3.7 0 0 0 7 1.9l7.7 3.5a11.8 11.8 0 0 1-21.2-7Zm11.9 1.6c0 1-.7 1.6-1.6 1.6-1 0-1.6-.7-1.6-1.6 0-.8.7-1.6 1.6-1.6.9 0 1.6.8 1.6 1.6Zm-24.9 30c-.4.6-1.2.6-1.7 0a1.2 1.2 0 0 1 0-1.6l2-2 1.6 1.8-1.9 1.9Zm6.5 7.6c-.5.4-1.3.4-1.8 0a1.2 1.2 0 0 1 0-1.7l2-2 .8.9.9.8-2 2Zm7-7-3.6 3.5-.8-.8-1-.9 3.6-3.5.2-.2v-.1l.1-.3V72a1 1 0 0 0-.2-.3l-3.3-3.3h-.1l-.2-.2h-1v.1l-3.6 2.7-1.8-1.8 4.8-4.8 8.7 8.6-1.9 1.8Zm13.6-14h-.1a1 1 0 0 0-.8.3l-9.5 10.3L113 63l5.6-5.6a1 1 0 0 0-.7-1.9h-4.5v-3.1h6.3a13.9 13.9 0 0 0 12.5 4l.3.1 4.8 2 .3 1.5.4 1.7-6-.8Zm8 .3-.6-3 3-2.2.7 1 1.1 1.5L140 61Zm7.5-5.6L146 57l-1.9-2.5 1.7-1.3a1.5 1.5 0 0 1 2 .3c.5.6.4 1.4-.2 1.9Z"/><path fill="#2E2F42" d="m127.2 61-4.3-4.2a1 1 0 0 0-1.5 0l-4.3 4.3a1 1 0 0 0 0 1.5l4.3 4.3a1 1 0 0 0 1.5 0l4.3-4.3a1 1 0 0 0 0-1.5Zm-5 3.6-2.8-2.8 2.8-2.7 2.7 2.7-2.7 2.8ZM134.3 34.1l-.5 2.1c.2 0 3.5 1 3.5 4.3h2.1c0-4-3.3-6-5-6.4ZM139.4 42.6h-2.1v2.2h2.1v-2.2Z"/></svg>